HIERARCHY
ROOT Hips
{
	OFFSET 0.000000 0.000000 0.000000
	CHANNELS 6 Xposition Yposition Zposition Xrotation Yrotation Zrotation
	JOINT LeftUpLeg_virtual
	{
		OFFSET 0.000000 0.000000 0.000000
		CHANNELS 3 Xrotation Yrotation Zrotation
		JOINT LeftUpLeg
		{
			OFFSET 15.427100 -6.655098 0.678600
			CHANNELS 3 Xrotation Yrotation Zrotation
			JOINT LeftLeg
			{
				OFFSET 4.081073 -39.591068 13.024000
				CHANNELS 3 Xrotation Yrotation Zrotation
				JOINT LeftFoot
				{
					OFFSET -4.081074 -37.707932 -15.979700
					CHANNELS 3 Xrotation Yrotation Zrotation
					JOINT LeftToeBase
					{
						OFFSET 5.346399 -15.068900 20.645000
						CHANNELS 3 Xrotation Yrotation Zrotation
						JOINT LeftToe_End
						{
							OFFSET 2.754700 0.931300 11.300900
							CHANNELS 3 Xrotation Yrotation Zrotation
							End Site
							{
								OFFSET 0 0 0
							}
						}
					}
				}
			}
		}
	}
	JOINT RightUpLeg_virtual
	{
		OFFSET 0.000000 0.000000 0.000000
		CHANNELS 3 Xrotation Yrotation Zrotation
		JOINT RightUpLeg
		{
			OFFSET -15.569500 -6.655098 0.678600
			CHANNELS 3 Xrotation Yrotation Zrotation
			JOINT RightLeg
			{
				OFFSET -4.081825 -39.591045 13.023800
				CHANNELS 3 Xrotation Yrotation Zrotation
				JOINT RightFoot
				{
					OFFSET 4.081824 -37.707954 -15.979600
					CHANNELS 3 Xrotation Yrotation Zrotation
					JOINT RightToeBase
					{
						OFFSET -5.346400 -15.068900 20.645000
						CHANNELS 3 Xrotation Yrotation Zrotation
						JOINT RightToe_End
						{
							OFFSET -2.754700 0.931300 11.300900
							CHANNELS 3 Xrotation Yrotation Zrotation
							End Site
							{
								OFFSET 0 0 0
							}
						}
					}
				}
			}
		}
	}
	JOINT Spine_virtual
	{
		OFFSET 0.000000 0.000000 0.000000
		CHANNELS 3 Xrotation Yrotation Zrotation
		JOINT Spine
		{
			OFFSET -0.279200 12.230698 -2.892100
			CHANNELS 3 Xrotation Yrotation Zrotation
			JOINT Spine1
			{
				OFFSET -0.232667 10.192268 -1.242267
				CHANNELS 3 Xrotation Yrotation Zrotation
				JOINT Spine1_split
				{
					OFFSET -0.232667 10.192268 -1.242267
					CHANNELS 3 Xrotation Yrotation Zrotation
					JOINT Spine2
					{
						OFFSET -0.232667 10.192268 -1.242267
						CHANNELS 3 Xrotation Yrotation Zrotation
						JOINT Neck_virtual
						{
							OFFSET 0.000000 0.000000 0.000000
							CHANNELS 3 Xrotation Yrotation Zrotation
							JOINT Neck
							{
								OFFSET -0.418800 17.814194 8.416900
								CHANNELS 3 Xrotation Yrotation Zrotation
								JOINT Head
								{
									OFFSET 0.000000 7.031097 3.806800
									CHANNELS 3 Xrotation Yrotation Zrotation
									JOINT HeadTop_End
									{
										OFFSET 0.000000 24.646606 12.978600
										CHANNELS 3 Xrotation Yrotation Zrotation
										End Site
										{
											OFFSET 0 0 0
										}
									}
								}
							}
						}
						JOINT LeftShoulder_virtual
						{
							OFFSET 0.000000 0.000000 0.000000
							CHANNELS 3 Xrotation Yrotation Zrotation
							JOINT LeftShoulder
							{
								OFFSET 8.476499 7.247704 -3.868750
								CHANNELS 3 Xrotation Yrotation Zrotation
								JOINT LeftShoulder_split
								{
									OFFSET 8.476499 7.247704 -3.868750
									CHANNELS 3 Xrotation Yrotation Zrotation
									JOINT LeftArm
									{
										OFFSET 9.308998 -2.777710 0.208600
										CHANNELS 3 Xrotation Yrotation Zrotation
										JOINT LeftForeArm
										{
											OFFSET 29.972298 0.000000 0.000000
											CHANNELS 3 Xrotation Yrotation Zrotation
											JOINT LeftHand
											{
												OFFSET 26.026505 0.000000 0.000000
												CHANNELS 3 Xrotation Yrotation Zrotation
												End Site
												{
													OFFSET 0 0 0
												}
											}
										}
									}
								}
							}
						}
						JOINT RightShoulder_virtual
						{
							OFFSET 0.000000 0.000000 0.000000
							CHANNELS 3 Xrotation Yrotation Zrotation
							JOINT RightShoulder
							{
								OFFSET -7.570500 7.247704 -3.868750
								CHANNELS 3 Xrotation Yrotation Zrotation
								JOINT RightShoulder_split
								{
									OFFSET -7.570500 7.247704 -3.868750
									CHANNELS 3 Xrotation Yrotation Zrotation
									JOINT RightArm
									{
										OFFSET -9.308998 -2.777710 0.208500
										CHANNELS 3 Xrotation Yrotation Zrotation
										JOINT RightForeArm
										{
											OFFSET -29.972300 0.000000 0.000000
											CHANNELS 3 Xrotation Yrotation Zrotation
											JOINT RightHand
											{
												OFFSET -26.026505 0.000000 0.000000
												CHANNELS 3 Xrotation Yrotation Zrotation
												End Site
												{
													OFFSET 0 0 0
												}
											}
										}
									}
								}
							}
						}
					}
				}
			}
		}
	}
}
MOTION
Frames: 9
Frame Time: 0.03333333
2.915667 95.542717 -4.368004 0.000000 0.000000 0.000000 -0.709252 -0.064898 -3.005721 -32.725376 -0.629227 3.284775 50.644299 -1.387473 -0.917346 24.687591 -1.298263 12.149890 -15.037104 -1.113156 0.978258 0.000000 0.000000 0.000000 -1.106508 2.526127 -3.195196 -17.678297 -14.548983 7.408061 31.257152 6.382139 0.687301 15.181719 -1.985837 -5.497255 -19.236745 1.180635 3.664412 0.000000 0.000000 0.000000 -4.580354 4.424089 -2.094062 7.611350 1.183501 -1.017445 -2.578402 -0.618576 1.952407 -0.129042 1.225339 -0.703547 0.000000 0.000000 0.000000 -3.079433 -0.185252 1.775679 -4.270734 -2.340385 0.834416 2.399246 0.753592 3.869977 0.000000 0.000000 0.000000 -2.911857 -0.096175 2.067977 0.294890 3.216192 -0.893391 0.635924 -1.354944 0.195133 2.778402 4.499113 -71.110056 23.607789 -13.391213 1.167399 0.000000 0.000000 0.000000 -2.138653 -0.136583 1.921824 1.594533 5.382884 4.954767 -4.897092 1.351495 -1.758437 -7.766070 8.087639 77.809119 11.978168 16.084969 -3.138575 0.000000 0.000000 0.000000 
2.516817 95.658768 -1.651121 0.000000 0.000000 0.000000 -0.928861 -0.887135 -2.925636 -34.851317 0.314134 2.729123 44.108364 -0.634710 -0.951708 25.234650 -1.113373 13.748641 -14.629630 -1.072919 1.273369 0.000000 0.000000 0.000000 -0.520740 1.785707 -3.336098 -17.424243 -14.211429 7.070740 32.020142 6.786619 0.986896 16.914885 -1.606693 -6.036443 -21.634086 0.838583 4.075235 0.000000 0.000000 0.000000 -3.830764 3.732902 -2.770551 7.542717 1.418990 -0.809479 -2.575808 -0.577774 1.922424 -0.029490 0.762450 -0.523091 0.000000 0.000000 0.000000 -2.969671 -0.152356 1.749182 -4.176750 -2.134067 0.512649 2.752532 0.796144 3.862996 0.000000 0.000000 0.000000 -3.106803 -0.043265 2.038964 0.383474 3.630809 -1.135209 -0.059154 -1.714602 -0.200414 2.962688 4.619097 -70.754066 23.772041 -14.188333 1.410546 0.000000 0.000000 0.000000 -2.265870 -0.104256 1.940087 1.535165 5.460864 4.605922 -4.493549 1.608245 -1.643679 -8.603726 8.433385 77.527770 12.033657 15.711805 -3.338652 0.000000 0.000000 0.000000 
2.357064 96.057198 1.664547 0.000000 0.000000 0.000000 -0.955064 -1.570954 -2.735278 -37.046021 0.853012 1.411416 34.030420 -0.200660 0.057091 28.629168 -1.165412 12.315190 -15.127652 -0.929879 1.082689 0.000000 0.000000 0.000000 -0.237835 0.601250 -3.262535 -15.876401 -14.397439 6.108344 32.808411 7.309693 1.208503 17.295977 -0.188596 -7.275674 -25.540068 0.689824 4.334434 0.000000 0.000000 0.000000 -2.854840 2.761911 -3.338305 7.537187 1.736260 -0.215861 -2.578080 -0.500062 1.914282 0.465922 0.330498 -0.261300 0.000000 0.000000 0.000000 -2.898242 -0.110091 1.743621 -4.277706 -1.623344 -0.145497 3.081359 1.098623 3.372112 0.000000 0.000000 0.000000 -3.306252 0.041182 1.990008 0.487791 4.731877 -2.125429 -1.133107 -2.357429 -0.632675 3.487213 5.207326 -70.845058 24.357938 -14.965178 1.993359 0.000000 0.000000 0.000000 -2.308714 -0.054181 1.858806 1.537840 5.497390 3.952826 -4.151174 1.713831 -1.199068 -9.923053 9.576181 76.694719 11.896878 15.481746 -3.341625 0.000000 0.000000 0.000000 
2.530406 96.296577 5.079296 0.000000 0.000000 0.000000 -0.879369 -1.872039 -2.348184 -39.054284 1.151281 -0.149862 23.250041 -0.163927 1.661471 34.571163 -1.473794 8.297198 -17.688820 -0.683364 0.805755 0.000000 0.000000 0.000000 -0.116340 -0.703849 -2.954743 -13.174316 -15.186615 4.586987 32.774492 7.982787 1.472528 15.736027 1.885946 -9.022950 -29.114371 0.878734 4.389145 0.000000 0.000000 0.000000 -2.088132 1.747233 -3.712483 7.577196 2.023351 0.594404 -2.558577 -0.439981 1.966251 0.981565 0.037009 0.076573 0.000000 0.000000 0.000000 -2.887587 -0.106750 1.825363 -4.570325 -0.866105 -0.961159 3.395811 1.575594 2.553882 0.000000 0.000000 0.000000 -3.468842 0.094841 1.991471 0.631180 6.382833 -3.648385 -2.195634 -3.035518 -0.818819 4.453395 6.064779 -71.248838 25.166553 -15.412588 2.745104 0.000000 0.000000 0.000000 -2.317468 -0.050778 1.746894 1.619720 5.439257 3.036163 -3.911631 1.635230 -0.688720 -11.269969 11.016900 75.759946 11.580002 15.873812 -3.156181 0.000000 0.000000 0.000000 
2.872774 96.076561 8.546820 0.000000 0.000000 0.000000 -0.879837 -2.007471 -1.902503 -41.413267 1.702226 -1.615666 14.682412 -0.523262 3.268794 41.675253 -2.288611 3.117942 -21.409607 -0.324141 0.747007 0.000000 0.000000 0.000000 0.091976 -1.776886 -2.559011 -9.055125 -16.553809 3.050078 31.388530 8.713662 1.648776 11.974824 4.210387 -10.604160 -31.501328 1.311217 4.230844 0.000000 0.000000 0.000000 -1.444077 0.914352 -3.875601 7.586184 2.195950 1.354654 -2.466391 -0.429717 2.103744 1.110216 0.038741 0.311082 0.000000 0.000000 0.000000 -2.933107 -0.175871 2.050197 -5.026869 -0.000282 -1.695484 3.697187 2.104318 1.644646 0.000000 0.000000 0.000000 -3.576440 0.086879 2.101138 0.847455 8.258827 -5.348539 -2.853376 -3.494833 -0.730379 5.609549 6.817109 -71.806284 25.890182 -15.376967 3.405879 0.000000 0.000000 0.000000 -2.323826 -0.120568 1.694453 1.755988 5.296018 1.999257 -3.635038 1.648615 -0.266811 -12.311837 12.234534 75.240606 11.107082 17.069464 -2.799366 0.000000 0.000000 0.000000 
3.285334 94.986916 12.112587 0.000000 0.000000 0.000000 -0.938112 -2.384446 -1.474731 -43.627495 3.092597 -2.871620 9.750497 -0.704908 4.271870 46.978389 -2.837786 -0.681856 -24.008019 0.071801 0.669511 0.000000 0.000000 0.000000 0.213357 -2.081216 -2.265749 -3.723639 -18.172664 1.961862 28.936134 9.360785 1.685953 6.487161 6.183361 -11.166539 -32.126365 1.813044 3.908139 0.000000 0.000000 0.000000 -1.149015 0.249098 -3.757947 7.476816 2.184791 1.760302 -2.307367 -0.486191 2.303820 0.924134 0.221124 0.369542 0.000000 0.000000 0.000000 -3.010698 -0.318682 2.383067 -5.613632 0.832946 -2.150327 4.003802 2.599534 0.913981 0.000000 0.000000 0.000000 -3.613301 0.014303 2.325588 1.106014 9.868388 -6.806332 -3.064860 -3.806622 -0.517403 6.674893 7.205537 -72.407860 26.210583 -14.663941 3.754752 0.000000 0.000000 0.000000 -2.333168 -0.255424 1.769030 1.906272 5.125242 0.954303 -3.196875 1.656131 0.037713 -12.745872 12.806011 75.549009 10.556424 18.694882 -2.333233 0.000000 0.000000 0.000000 
3.454408 93.095032 15.896356 0.000000 0.000000 0.000000 -1.111851 -3.096983 -1.064974 -45.040928 5.688858 -3.662415 8.380079 -0.495335 4.594627 48.030553 -2.451421 -1.505830 -24.720022 0.312199 1.043365 0.000000 0.000000 0.000000 0.158066 -1.855001 -1.983313 2.309574 -19.443873 1.782238 26.181187 9.617869 1.600810 -0.019798 7.106653 -10.707611 -32.041196 2.126957 3.614539 0.000000 0.000000 0.000000 -1.353619 0.001752 -3.480504 7.178064 2.012434 1.688929 -2.094947 -0.587323 2.525153 0.760174 0.639470 0.175888 0.000000 0.000000 0.000000 -3.022684 -0.482490 2.751043 -6.239781 1.562541 -2.225500 4.324641 2.987502 0.551862 0.000000 0.000000 0.000000 -3.558335 -0.079933 2.610242 1.361028 10.879099 -7.756235 -2.844608 -4.020173 -0.112532 7.424313 7.109665 -73.016635 26.099288 -13.367338 3.802504 0.000000 0.000000 0.000000 -2.339259 -0.409416 1.931913 1.979544 4.929640 0.029417 -2.734672 1.573813 0.186079 -12.539126 12.518112 76.646245 10.011013 19.942715 -1.883094 0.000000 0.000000 0.000000 
3.426121 90.965637 19.568420 0.000000 0.000000 0.000000 -1.424638 -3.835628 -0.809840 -45.381129 9.267814 -4.109928 10.308306 -0.723015 4.185436 45.496928 -2.020644 0.597167 -24.171263 0.324965 2.025838 0.000000 0.000000 0.000000 -0.264177 -1.318527 -1.727699 8.265482 -19.683147 2.650375 23.936219 9.174447 0.943691 -6.993840 6.810264 -9.924467 -32.007872 2.101083 3.419246 0.000000 0.000000 0.000000 -1.725479 0.269385 -3.123506 6.704327 1.731846 1.227131 -1.823499 -0.653077 2.724461 0.652116 1.071620 -0.138140 0.000000 0.000000 0.000000 -2.902227 -0.586265 3.052899 -6.783624 2.090817 -1.931810 4.644924 3.168309 0.607386 0.000000 0.000000 0.000000 -3.391258 -0.129497 2.867109 1.586811 11.087573 -8.066473 -2.432429 -4.004284 0.232464 7.557705 6.552278 -73.729741 25.741211 -11.864303 3.662164 0.000000 0.000000 0.000000 -2.217259 -0.491964 2.127955 1.950266 4.762150 -0.707957 -2.340731 1.419045 0.414193 -11.678938 11.635028 78.233233 9.579654 20.206853 -1.577094 0.000000 0.000000 0.000000 
3.332779 89.046753 23.041645 0.000000 0.000000 0.000000 -1.828527 -4.476702 -0.657750 -44.972892 13.104258 -4.261534 14.659118 -2.152517 2.996160 41.634904 -2.739353 4.533617 -24.057480 0.080702 3.479345 0.000000 0.000000 0.000000 -0.895953 -0.681684 -1.439179 13.210127 -18.372726 4.049399 22.981467 7.920729 -0.050130 -13.055993 5.525124 -10.045811 -31.616126 1.956325 3.239481 0.000000 0.000000 0.000000 -2.185197 1.071204 -2.648766 6.025625 1.378188 0.468904 -1.493211 -0.638288 2.899187 0.636692 1.142716 -0.389642 0.000000 0.000000 0.000000 -2.645634 -0.585925 3.226865 -7.153770 2.401224 -1.422048 4.931278 3.149257 1.002615 0.000000 0.000000 0.000000 -3.112532 -0.101646 3.038264 1.752242 10.603400 -7.802296 -1.964109 -3.810094 0.397803 7.146842 5.907347 -74.649747 25.394847 -10.639367 3.564453 0.000000 0.000000 0.000000 -1.915200 -0.467209 2.318655 1.857429 4.622763 -1.270175 -2.143614 1.172026 0.658287 -10.207513 10.416611 79.876562 9.397382 19.309059 -1.488375 0.000000 0.000000 0.000000 
